<svg width="32" height="32" viewBox="0 0 32 32" fill="none" xmlns="http://www.w3.org/2000/svg">
  <rect width="32" height="32" rx="6" fill="url(#gradient)"/>
  <path d="M16 8L17.5 12.5L22 14L17.5 15.5L16 20L14.5 15.5L10 14L14.5 12.5L16 8Z" fill="white"/>
  <path d="M8 20L9 22.5L11.5 23.5L9 24.5L8 27L7 24.5L4.5 23.5L7 22.5L8 20Z" fill="white" opacity="0.8"/>
  <path d="M24 20L24.5 21.5L26 22L24.5 22.5L24 24L23.5 22.5L22 22L23.5 21.5L24 20Z" fill="white" opacity="0.6"/>
  <defs>
    <linearGradient id="gradient" x1="0" y1="0" x2="32" y2="32" gradientUnits="userSpaceOnUse">
      <stop stop-color="#3B82F6"/>
      <stop offset="1" stop-color="#2563EB"/>
    </linearGradient>
  </defs>
</svg>

